<svg xmlns="http://www.w3.org/2000/svg" viewBox="0 0 64 64">
  <path fill="#c5cf9a" stroke="#3f512c" stroke-width="2" stroke-linejoin="round" d="M30.6 52.8c-4.7 4-11.9 1.4-12.7-4.7-6.2.3-10.3-6.5-7-11.6-5-3.7-2.8-11.7 3.3-12.3-1-6.5 6.7-10.4 11.3-6 3.2-5.6 11.4-3.2 11.2 3.6 5.2 2.3 8.7 7.6 6.6 11.6 4.6 3.4-1.7 10.5-8.7 11.3-4.8.5-6.5 6.2-3.9 10.1-4.9 2.5-11.4-1.4-11.4-7.4-.5-3.6-3.2-7.2-7.2-7.2-3 0-5.7 1.8-6.8 4.6-4.3-.2-7.7 3.2-7.7 7.4 0 2.1.9 4.1 2.4 5.5-1.5 1.3-2.4 3.3-2.4 5.4 0 4.2 3.6 7.6 7.9 7.3.7 3 3.4 5.2 6.6 5.2 2.2 0 4.2-1 5.5-2.6 1.6 1.2 3.5 1.8 5.5 1.8 5 0 9.1-4.1 9.1-9.1 0-1.1-.2-2.2-.6-3.2"/>
  <path fill="none" stroke="#6f7f43" stroke-width="1.7" stroke-linecap="round" d="M25.5 18.2c-1.4 3.8.7 6.5 3.7 7.4-3.8 1.1-5.5 4.6-4 8M14.3 24.2c4-.1 6.2 2.7 5.4 6.1M17.9 48.1c-.4-3.8 2.3-6.5 5.7-6.4M39.2 19.8c-3.1 2.8-2.9 6.8-.4 9.3M48.5 29.5c-3.7-.6-6.8 1.8-7.3 5.2M35.7 48.8c2.5-2.4 2.4-6.2.2-8.6"/>
  <path fill="none" stroke="#aa593a" stroke-width="4" stroke-linecap="round" d="M42.2 28.8c2.7-2.8 1.5-5.7 3.7-8.3 2.6-3.1 7.4-1.2 8.1-5.5.5-2.9-1.5-5.2-4-5.8"/>
  <circle cx="49.3" cy="8.9" r="5.1" fill="#c76e4b" stroke="#6f3928" stroke-width="1.5"/>
  <circle cx="47.8" cy="7.7" r=".7" fill="#2e2a22"/><circle cx="51.3" cy="8.2" r=".7" fill="#2e2a22"/>
  <path d="M48.1 10.6c.9.7 2 .8 3 .2" fill="none" stroke="#6f3928" stroke-width=".9" stroke-linecap="round"/>
</svg>
