<svg xmlns="http://www.w3.org/2000/svg" viewBox="0 0 64 64">
  <rect width="64" height="64" rx="14" fill="#efe5cf"/>
  <path fill="#c5cf9a" stroke="#3f512c" stroke-width="2" stroke-linejoin="round" d="M32 17.2c-2.7-4.4-8.8-5.4-12.5-1.7-5.1-1.2-9.6 2.9-9 8.1-4.8 1.9-5.7 8.3-1.8 11.4-3.2 4.2-1.2 10.5 3.9 12.1.2 5.3 5.8 8.5 10.5 5.9 2.7 3.4 7.2 1.8 8.9-2 1.7 3.8 6.2 5.4 8.9 2 4.7 2.6 10.3-.6 10.5-5.9 5.1-1.6 7.1-7.9 3.9-12.1 3.9-3.1 3-9.5-1.8-11.4.6-5.2-3.9-9.3-9-8.1-3.7-3.7-9.8-2.7-12.5 1.7Z"/>
  <path fill="none" stroke="#6f7f43" stroke-width="1.7" stroke-linecap="round" stroke-linejoin="round" d="M32 17.2c-2.1 3.8 1.8 6.5 0 10.2-1.8 3.8 1.8 6.5 0 10.3-1.8 3.7 1.6 7.1 0 13.3M22 17.1c-3.6 1.5-4.8 5.2-2.6 8.1-3.9-.7-7 1.7-6.9 5.2M27.2 29.4c-4.2-.7-7.1 2.1-6.8 5.6.2 2.6-1.5 4.4-4.3 4.8M22.9 51.8c-2.3-2.1-2.2-5.7.2-7.6M42 17.1c3.6 1.5 4.8 5.2 2.6 8.1 3.9-.7 7 1.7 6.9 5.2M36.8 29.4c4.2-.7 7.1 2.1 6.8 5.6-.2 2.6 1.5 4.4 4.3 4.8M41.1 51.8c2.3-2.1 2.2-5.7-.2-7.6"/>
  <path fill="none" stroke="#aa593a" stroke-width="4" stroke-linecap="round" d="M42.8 23.8c-.3-4.4 3.2-5.9 3.1-9.4-.1-3.2 2.2-5.8 5.3-6.4"/>
  <circle cx="52.8" cy="7.2" r="5.2" fill="#c76e4b" stroke="#6f3928" stroke-width="1.5"/>
  <circle cx="51.4" cy="6.1" r=".7" fill="#2e2a22"/><circle cx="54.7" cy="6.6" r=".7" fill="#2e2a22"/>
  <path d="M51.4 8.8c1 .8 2.2.9 3.2.2" fill="none" stroke="#6f3928" stroke-width=".9" stroke-linecap="round"/>
</svg>
